<?xml version="1.0" standalone="no"?>
<svg xmlns:xlink="http://www.w3.org/1999/xlink" id="wave" style="transform:rotate(180deg); transition: 0.3s" viewBox="0 0 1440 490" version="1.1" xmlns="http://www.w3.org/2000/svg"><defs><linearGradient id="sw-gradient-0" x1="0" x2="0" y1="1" y2="0"><stop stop-color="rgba(193.125, 62, 243, 1)" offset="0%"/><stop stop-color="rgba(105.101, 11, 255, 1)" offset="100%"/></linearGradient></defs><path style="transform:translate(0, 0px); opacity:1" fill="url(#sw-gradient-0)" d="M0,98L60,81.7C120,65,240,33,360,32.7C480,33,600,65,720,98C840,131,960,163,1080,196C1200,229,1320,261,1440,228.7C1560,196,1680,98,1800,89.8C1920,82,2040,163,2160,196C2280,229,2400,212,2520,171.5C2640,131,2760,65,2880,57.2C3000,49,3120,98,3240,147C3360,196,3480,245,3600,277.7C3720,310,3840,327,3960,310.3C4080,294,4200,245,4320,228.7C4440,212,4560,229,4680,245C4800,261,4920,278,5040,236.8C5160,196,5280,98,5400,57.2C5520,16,5640,33,5760,106.2C5880,180,6000,310,6120,343C6240,376,6360,310,6480,277.7C6600,245,6720,245,6840,228.7C6960,212,7080,180,7200,196C7320,212,7440,278,7560,253.2C7680,229,7800,114,7920,130.7C8040,147,8160,294,8280,318.5C8400,343,8520,245,8580,196L8640,147L8640,490L8580,490C8520,490,8400,490,8280,490C8160,490,8040,490,7920,490C7800,490,7680,490,7560,490C7440,490,7320,490,7200,490C7080,490,6960,490,6840,490C6720,490,6600,490,6480,490C6360,490,6240,490,6120,490C6000,490,5880,490,5760,490C5640,490,5520,490,5400,490C5280,490,5160,490,5040,490C4920,490,4800,490,4680,490C4560,490,4440,490,4320,490C4200,490,4080,490,3960,490C3840,490,3720,490,3600,490C3480,490,3360,490,3240,490C3120,490,3000,490,2880,490C2760,490,2640,490,2520,490C2400,490,2280,490,2160,490C2040,490,1920,490,1800,490C1680,490,1560,490,1440,490C1320,490,1200,490,1080,490C960,490,840,490,720,490C600,490,480,490,360,490C240,490,120,490,60,490L0,490Z"/></svg>